<?xml version="1.0" standalone="no"?>
<!DOCTYPE svg PUBLIC "-//W3C//DTD SVG 20010904//EN"
 "http://www.w3.org/TR/2001/REC-SVG-20010904/DTD/svg10.dtd">
<svg version="1.0" xmlns="http://www.w3.org/2000/svg"
 width="512.000000pt" height="512.000000pt" viewBox="0 0 512.000000 512.000000"
 preserveAspectRatio="xMidYMid meet">
<metadata>
Created by potrace 1.11, written by Peter Selinger 2001-2013
</metadata>
<g transform="translate(0.000000,512.000000) scale(0.100000,-0.100000)"
fill="#000000" stroke="none">
<path d="M252 5100 c-112 -40 -201 -132 -236 -243 -16 -50 -17 -137 -13 -1093
4 -1130 2 -1099 63 -1387 96 -454 310 -906 605 -1278 105 -133 335 -363 468
-468 317 -252 717 -457 1086 -559 198 -54 305 -74 365 -67 80 10 355 80 473
121 888 310 1580 1001 1886 1887 90 262 140 506 161 797 7 93 10 479 8 1085
l-3 940 -32 66 c-39 80 -111 150 -191 187 l-57 27 -2265 2 c-2209 2 -2266 2
-2318 -17z m2610 -1289 c134 -29 253 -73 388 -142 149 -77 262 -162 386 -291
200 -208 327 -448 390 -738 27 -122 27 -457 0 -585 -176 -836 -989 -1356
-1815 -1159 -563 134 -994 583 -1118 1164 -26 122 -26 459 1 580 62 286 191
532 386 734 81 84 198 181 286 238 170 109 413 194 634 222 88 11 367 -3 462
-23z"/>
<path d="M2495 3186 c-50 -23 -71 -54 -165 -256 -50 -107 -93 -196 -95 -198
-2 -2 -99 -19 -216 -37 -227 -36 -244 -42 -286 -105 -25 -36 -30 -99 -12 -147
6 -15 80 -99 166 -185 l156 -157 -36 -228 c-41 -255 -40 -273 15 -330 37 -38
95 -57 141 -47 17 3 112 52 211 107 99 55 185 100 191 100 7 0 92 -44 190 -98
188 -103 237 -119 295 -95 41 17 88 72 95 114 5 22 -7 117 -30 256 l-37 222
59 62 c32 33 102 106 155 162 53 55 102 113 108 128 28 74 -5 161 -74 195 -27
14 -107 31 -240 50 -109 17 -202 34 -206 38 -5 4 -45 87 -90 183 -104 222
-114 238 -164 261 -48 22 -89 23 -131 5z"/>
</g>
</svg>
