<svg id="color" enable-background="new 0 0 24 24" height="512" viewBox="0 0 24 24" width="512" xmlns="http://www.w3.org/2000/svg"><path d="m24 1.75v2.25h-24v-2.25c0-.96.79-1.75 1.75-1.75h20.5c.96 0 1.75.79 1.75 1.75z" fill="#1976d2"/><path d="m24 4v5.87c0 6.99-4.99 12.92-11.87 14.12l-.13.01-.13-.01c-6.88-1.2-11.87-7.13-11.87-14.12v-5.87z" fill="#2196f3"/><path d="m12 6c-3.859 0-7 3.14-7 7s3.141 7 7 7 7-3.14 7-7-3.141-7-7-7z" fill="#fafafa"/><path d="m15.961 11.979c-.091-.267-.322-.46-.601-.501l-1.852-.276-.84-1.772c-.123-.263-.387-.43-.677-.43h-.003c-.29.001-.555.17-.677.433l-.828 1.778-1.849.289c-.277.043-.508.239-.596.506-.089.267-.02.561.177.761l1.365 1.388-.315 1.976c-.046.284.075.569.31.733.128.091.278.136.43.136.125 0 .251-.031.365-.095l1.643-.915 1.649.903c.25.139.56.121.795-.046.233-.166.353-.452.306-.735l-.33-1.974 1.355-1.397c.196-.201.263-.496.173-.762z" fill="#2196f3"/><path d="m12 0h-10.25c-.96 0-1.75.79-1.75 1.75v2.25h12z" fill="#1667b7"/><path d="m12 4h-12v5.87c0 6.99 4.99 12.92 11.87 14.12l.13.01v-4c-3.859 0-7-3.14-7-7s3.141-7 7-7z" fill="#1d83d4"/><path d="m12 6c-3.859 0-7 3.14-7 7s3.141 7 7 7v-4.002l-1.63.907c-.114.064-.24.095-.365.095-.151 0-.302-.045-.43-.136-.235-.164-.356-.449-.31-.733l.315-1.976-1.365-1.388c-.196-.201-.266-.494-.177-.761.088-.267.318-.462.596-.506l1.85-.289.828-1.778c.122-.263.386-.432.676-.433h.003.009z" fill="#dadada"/><path d="m11.991 9h-.003c-.29.001-.555.17-.677.433l-.828 1.778-1.849.289c-.277.043-.508.239-.596.506-.089.267-.02.561.177.761l1.365 1.388-.315 1.976c-.046.284.075.569.31.733.128.091.278.136.43.136.125 0 .251-.031.365-.095l1.63-.907v-6.998c-.003 0-.006 0-.009 0z" fill="#1d83d4"/></svg>